<svg xmlns="http://www.w3.org/2000/svg" viewBox="0 0 997.78 1000"><defs><style>.a{fill:#fff;}</style></defs><path class="a" d="M937.65,879.74a59.64,59.64,0,0,0-23.78,4.91L668.68,638.8,921.94,80.74,359.55,328.81,115.34,83.94a60.16,60.16,0,1,0-31.43,31.41L316,348,97.78,444.28a60.38,60.38,0,1,0,21.94,38.88L349.6,381.76,615.52,648.42,510.41,880q-2.94-.28-6-.29a60.24,60.24,0,1,0,45.45,20.82L649.06,682l233.38,234a60.13,60.13,0,1,0,55.21-36.32ZM33.32,60.13A26.81,26.81,0,1,1,60.13,86.94,26.84,26.84,0,0,1,33.32,60.13ZM60.13,517.92a26.81,26.81,0,1,1,26.81-26.81A26.84,26.84,0,0,1,60.13,517.92ZM504.44,966.68a26.81,26.81,0,1,1,26.81-26.81A26.84,26.84,0,0,1,504.44,966.68ZM393.18,362.54,833.39,168.37,635.15,605.17ZM937.65,966.68a26.81,26.81,0,1,1,26.81-26.81A26.84,26.84,0,0,1,937.65,966.68Z"/></svg>
