<svg id="Layer_1" data-name="Layer 1" xmlns="http://www.w3.org/2000/svg" viewBox="0 0 501.37 119.91"><defs><style>.cls-1{fill:#010101;}</style></defs><title>Logo-Min</title><path class="cls-1" d="M58.77,518.35c1.2,0,2.33.06,3.46.06a1.53,1.53,0,0,1,1.2.66,3.12,3.12,0,0,1,.48,1.31c0,.84.06,1.67.06,2.51,0,1.49.11,3,.17,4.59.06,2.33.06,4.66.06,7h-.06V535c-.06,3.64-.06,7.28-.06,10.86,0,1.19.12,2.33.18,3.46a4.12,4.12,0,0,0,1,2.33,1.8,1.8,0,0,0,1.43.83c.44,0,.85,0,1.25,0l.6,0A2.6,2.6,0,0,0,70.71,551a8.65,8.65,0,0,0,.83-3.64c.06-3.58.06-7.22.12-10.8.06-4.11.12-8.23.18-12.29a.76.76,0,0,0,.06-.36c.06-.71.18-1.49.24-2.26.06-.6.18-1.14.24-1.74a2.19,2.19,0,0,1,.24-.65,1.17,1.17,0,0,1,1.07-.72c.54-.06,1.13-.06,1.67-.12l2.57-.35a1.26,1.26,0,0,0,.71-.42,2.54,2.54,0,0,0,.84-2v-1.07a4.25,4.25,0,0,0-.42-2.27,2.69,2.69,0,0,0-.6-.78,7,7,0,0,0-1.25-.65,1.59,1.59,0,0,0-.71-.18c-1.56-.06-3.11-.18-4.66-.18-2.68-.06-5.37-.06-8.05-.06-1.38,0-2.75-.06-4.06-.06a.89.89,0,0,0-.42.06,2.69,2.69,0,0,0-2.15,2,9.84,9.84,0,0,1-.3,1.25,8.38,8.38,0,0,0,.06,3.16A2.27,2.27,0,0,0,58.77,518.35Z" transform="translate(-56.21 -509.22)"/><path class="cls-1" d="M102.93,552.18c1.19.09,2.39.23,3.58.23a10.89,10.89,0,0,0,1.61-.11.72.72,0,0,0,.77-.47,3.39,3.39,0,0,0,.48-1.67c-.06-3.46-.12-6.93-.18-10.45l-.18-8.59h.06C109,530.05,109,529,109,528c-.06-3.4-.17-6.74-.23-10.08-.06-1.85-.12-3.7-.12-5.61a3,3,0,0,0-.36-1.43,2.91,2.91,0,0,0-2.63-1.62h-.35a14.75,14.75,0,0,0-3,.42,1.8,1.8,0,0,0-1.31,1.49l-.18,2.15v10.26a1.25,1.25,0,0,1-1.19,1.26,11.16,11.16,0,0,1-2,.24c-.81,0-1.6.06-2.38.06A20.38,20.38,0,0,1,92.9,525a1.46,1.46,0,0,1-1.37-1.49c0-1.62.12-3.29.18-5,.06-2.44,0-4.89,0-7.34a1.05,1.05,0,0,0-.48-.89,3.07,3.07,0,0,0-1.31-.48h-.59a2.74,2.74,0,0,1-1.14-.19H88a10.31,10.31,0,0,0-2.33.24,2,2,0,0,0-1.43,1.19,7.6,7.6,0,0,0-.59,2.81c-.06,1.91-.12,3.82-.12,5.73-.06,3.28-.06,6.56-.06,9.78,0,1.85.06,3.76.12,5.61.06,2.63.12,5.25.06,7.82s-.12,5.07-.18,7.57a2.15,2.15,0,0,0,.83,1.74,3.39,3.39,0,0,0,2,.72h.21c1.13,0,2.27-.18,3.4-.24a1.07,1.07,0,0,0,.84-.65,6.65,6.65,0,0,0,.59-2.15c.06-1.14.12-2.33.12-3.52,0-2.45.06-4.89.06-7.34,0-1.14-.06-2.33-.06-3.46a2.42,2.42,0,0,1,.66-1.67c.12-.12.3-.3.48-.3a13.48,13.48,0,0,1,2.14-.42c1.5-.06,2.93-.06,4.42-.12a1.41,1.41,0,0,1,1.37.9,3.43,3.43,0,0,1,.42,1.91c0,1.19,0,2.44.06,3.64.06,3.22.12,6.5.3,9.72a6.33,6.33,0,0,0,.36,1.85A1.49,1.49,0,0,0,102.93,552.18Z" transform="translate(-56.21 -509.22)"/><path class="cls-1" d="M136.76,543.89h-.18c-2,.06-4.12.12-6.15.24v-.06h-2.26c-.6-.06-1.2-.06-1.79-.12s-1.32-.48-1.37-1.31a12.87,12.87,0,0,1-.18-1.49,27.18,27.18,0,0,1,.12-4.42,18.31,18.31,0,0,1,.23-3c.12-.48.3-.78.84-.84s1.25-.18,1.91-.24c.95-.06,2-.12,3-.23a.76.76,0,0,0,.36-.06c.54,0,1.07-.12,1.61-.12a2.87,2.87,0,0,0,1.79-.66,2.57,2.57,0,0,0,1.07-2.21,5.76,5.76,0,0,0-.11-1.37c-.12-.42-.12-.84-.24-1.25a2.32,2.32,0,0,0-2.33-1.91c-.27,0-.54,0-.82,0h-1.49c-.46,0-.93,0-1.39,0h-.72c-.65,0-1.37.06-2,.06a1.85,1.85,0,0,1-.6-.06,1.35,1.35,0,0,1-1-1.2V523c0-.78,0-1.55.06-2.33a1.12,1.12,0,0,1,1-1.19,13.1,13.1,0,0,1,1.49-.3c.3-.06.6-.06.84-.12a10.09,10.09,0,0,1,2.32-.18l1.59,0a7.36,7.36,0,0,0,1.93-.2h.48a8.05,8.05,0,0,0,1.73-.18,5.3,5.3,0,0,0,1.85-1.13,1.71,1.71,0,0,0,.54-1,11.05,11.05,0,0,0-.12-4.65,2,2,0,0,0-1.14-1.55,3.25,3.25,0,0,0-.83-.3,6.19,6.19,0,0,0-1.43-.3,28.79,28.79,0,0,0-3.22.12c-.79.05-1.57.07-2.35.07-1.07,0-2.14,0-3.2-.07-1.32-.12-2.63-.18-3.94-.24-1-.06-2-.06-3.05-.12h-.34a6.5,6.5,0,0,0-1.62.25,2,2,0,0,0-1.08.9,13.9,13.9,0,0,0-1,2.62,4.26,4.26,0,0,0-.24,1.2,22.07,22.07,0,0,0-.24,2.74c.06,3.16.12,6.27.24,9.43V527a44.43,44.43,0,0,1,.06,5.66c-.12.9-.06,1.85-.12,2.75-.12,2.33-.18,4.65-.3,7-.12,1.73-.18,3.46-.3,5.25a7,7,0,0,0,.42,3.16,1,1,0,0,0,.24.42c.42.36.89.66,1.37,1H117c1.25.06,2.51.12,3.76.12l6.32-.17a5.43,5.43,0,0,1,.57,0c.52,0,1,0,1.58,0h.6c1.31,0,2.68-.06,4-.12.53,0,1,.06,1.49.06.83,0,1.61,0,2.44-.06a1.41,1.41,0,0,0,1.14-.78,6.14,6.14,0,0,0,.47-1.43,8,8,0,0,0-.47-4.54A2.15,2.15,0,0,0,136.76,543.89Z" transform="translate(-56.21 -509.22)"/><path class="cls-1" d="M92,565.87a31.57,31.57,0,0,0-4.94.35,4.67,4.67,0,0,0-4,3.17c-.44,1.24-.7,2.47-1.06,3.71-.7,3-1.41,6.08-2.11,9.08l-1.59,6.61a3.48,3.48,0,0,1-.35.8,15.46,15.46,0,0,1-.62,1.85c-.26.7-.53,1.5-.79,2.2a2,2,0,0,1-.44.71,1.6,1.6,0,0,1-1,.43,1.12,1.12,0,0,1-1-.7,4.62,4.62,0,0,1-.62-1.14c-.18-.71-.35-1.5-.62-2.3-1-4.32-1.94-8.73-3.08-13.13-.62-2.12-1-4.32-1.41-6.44a7.93,7.93,0,0,0-1.85-3.35,3.39,3.39,0,0,0-1.5-1.15A7.4,7.4,0,0,0,62,566l-.85,0c-.29,0-.62,0-1,0a4,4,0,0,0-.59,0,3,3,0,0,0-1,.36A3.91,3.91,0,0,0,57,568.51a6.9,6.9,0,0,0-.62,2.65,5.91,5.91,0,0,1-.08,1.14,7.82,7.82,0,0,0,.26,3.18c.62,1.76,1.15,3.61,1.68,5.38.44,1.5.7,3,1.14,4.41a76.58,76.58,0,0,1,2.21,9.7,54.92,54.92,0,0,0,1.76,8.55c.62,2.2,1.32,4.41,2,6.52.7,2.38,1.41,4.76,2.11,7.15.62,1.94,1.24,3.88,1.77,5.9a3.56,3.56,0,0,0,1.5,2.21c.88.53,1.76,1,2.64,1.5a4.85,4.85,0,0,0,2.42.57,12.24,12.24,0,0,0,2.08-.22c2.12-.26,3.35-1.76,4.32-3.53.09,0,.09-.09.09-.17.44-1.86,1-3.71,1.41-5.56.44-1.59.79-3.17,1.23-4.67.89-3.09,1.77-6.09,2.74-9.08a7.05,7.05,0,0,1,.35-1.33q1.06-5,2.12-10c.53-2.38,1-4.85,1.67-7.32.35-1.85.71-3.79,1.24-5.64.7-2.91,1.14-5.91,2.11-8.73a4.68,4.68,0,0,0-.09-2.73A3.18,3.18,0,0,0,92,565.87Z" transform="translate(-56.21 -509.22)"/><path class="cls-1" d="M133.94,615.15h-.27c-3,.09-6.08.17-9.08.35v-.09h-3.35c-.88-.09-1.76-.09-2.64-.17a2.11,2.11,0,0,1-2-1.94,18.51,18.51,0,0,1-.27-2.21,41.79,41.79,0,0,1,.18-6.52,26.25,26.25,0,0,1,.35-4.5c.18-.71.44-1.15,1.24-1.24s1.85-.26,2.82-.35c1.41-.09,2.91-.17,4.41-.35a1.12,1.12,0,0,0,.53-.09c.79,0,1.58-.18,2.38-.18a4.21,4.21,0,0,0,2.64-1,3.81,3.81,0,0,0,1.59-3.26,7.79,7.79,0,0,0-.18-2c-.17-.61-.17-1.23-.35-1.85a3.42,3.42,0,0,0-3.44-2.82c-.4,0-.8,0-1.21,0-.73,0-1.46,0-2.21,0a19.89,19.89,0,0,1-2-.09H122c-1,0-2,.09-3,.09a2.65,2.65,0,0,1-.88-.09,2,2,0,0,1-1.41-1.76v-.79c0-1.15,0-2.3.08-3.44a1.67,1.67,0,0,1,1.5-1.77,21.59,21.59,0,0,1,2.21-.44c.44-.09.88-.09,1.23-.17a14.84,14.84,0,0,1,3.44-.27c.79,0,1.57,0,2.35,0a11.32,11.32,0,0,0,2.85-.3H131a11.82,11.82,0,0,0,2.56-.27,7.94,7.94,0,0,0,2.73-1.67,2.46,2.46,0,0,0,.79-1.5,16.46,16.46,0,0,0-.17-6.88,3,3,0,0,0-1.68-2.29,5,5,0,0,0-1.23-.44,8.9,8.9,0,0,0-2.12-.44,44.54,44.54,0,0,0-4.76.17c-1.16.08-2.31.1-3.47.1-1.57,0-3.15-.05-4.73-.1-1.94-.17-3.88-.26-5.82-.35-1.5-.09-3-.09-4.5-.18l-.51,0a9.1,9.1,0,0,0-2.4.38,2.92,2.92,0,0,0-1.58,1.32,20.34,20.34,0,0,0-1.5,3.88,6.13,6.13,0,0,0-.36,1.76,34.26,34.26,0,0,0-.35,4.06c.09,4.67.18,9.26.35,13.93v.71a64.77,64.77,0,0,1,.09,8.37c-.17,1.32-.09,2.74-.17,4.06-.18,3.44-.27,6.88-.45,10.31-.17,2.56-.26,5.12-.44,7.76a10.49,10.49,0,0,0,.62,4.68,1.57,1.57,0,0,0,.35.62c.62.52,1.33,1,2,1.49h.35c1.86.09,3.71.18,5.56.18l9.35-.26q.42,0,.84,0c.76,0,1.53.05,2.33.05l.88,0c1.94,0,4-.09,5.91-.18.79,0,1.5.09,2.2.09,1.24,0,2.39,0,3.62-.09A2.08,2.08,0,0,0,137,626a10.24,10.24,0,0,0,.7-2.11,11.68,11.68,0,0,0-.7-6.7A3.17,3.17,0,0,0,133.94,615.15Z" transform="translate(-56.21 -509.22)"/><path class="cls-1" d="M184.2,621.42a8.3,8.3,0,0,0-.62-2.21,30.09,30.09,0,0,1-1.94-4.58.68.68,0,0,1-.18-.44c-.52-1.24-1.05-2.38-1.58-3.62-.44-.79-.8-1.67-1.24-2.55a3.3,3.3,0,0,1,.71-4.33,5,5,0,0,0,.7-.79,15.09,15.09,0,0,0,2.21-4.32,26.65,26.65,0,0,0,1.59-7.41V586.5a31.73,31.73,0,0,0-2.3-11.82,14,14,0,0,0-1-2c-1.76-2.83-4-5.12-7.23-6.18a10.08,10.08,0,0,0-2.82-.44c-2.38,0-4.85.09-7.32.09-2.29,0-4.58-.09-7-.09-.36,0-.75,0-1.15,0a4.3,4.3,0,0,0-.62,0c-.91,0-1.83.12-2.79.12-.24,0-.49,0-.73,0l-.3,0a2.73,2.73,0,0,0-1.91.81,8.89,8.89,0,0,0-2.11,3.53v.27c-.18,1.94-.45,3.88-.62,5.9-.09,2.3-.09,4.59-.09,6.88.09,3.35.26,6.7.35,10,.18,4.5.27,8.91.44,13.41.09,3.52.18,7.14.27,10.67.09,2.2.09,4.41.17,6.61a4,4,0,0,0,1.06,2.56,5.51,5.51,0,0,0,4.06,1.85q.66.06,1.32.06t1.32-.06a4.35,4.35,0,0,0,2.91-1.24,5.19,5.19,0,0,0,1.68-3.79v-4.94c0-1.58-.09-3.17-.09-4.76a8.27,8.27,0,0,1,.44-2.55,1,1,0,0,1,1.06-.8,3.31,3.31,0,0,0,.55,0c.38,0,.77,0,1.13,0a2.17,2.17,0,0,1,.36,0,2.1,2.1,0,0,1,2,1.7,12.9,12.9,0,0,0,.79,1.94,8,8,0,0,0,.44.88,31.27,31.27,0,0,0,2.2,4.14c.62,1,1.24,1.86,1.77,2.83a23.46,23.46,0,0,1,1.06,2.55,5.23,5.23,0,0,0,2,2.12,11.17,11.17,0,0,0,3.71,1.06,7.2,7.2,0,0,0,.81,0c.56,0,1.13,0,1.66,0s1-.09,1.41-.09h.47a2.28,2.28,0,0,0,1.82-.62c.79-.79,1.59-1.67,1.41-2.91C184.46,623.18,184.37,622.3,184.2,621.42Zm-13.32-28.66a7.86,7.86,0,0,1-1.67,3.44,6.5,6.5,0,0,1-2.12,1.59,19.85,19.85,0,0,1-3,1.05,1.44,1.44,0,0,1-.61.09h-1.77a2.13,2.13,0,0,1-2.29-2.29v-1.59c.09-2.11.09-4.14.18-6.17h-.09v-7.49a3.32,3.32,0,0,1,1.15-2.56,3.8,3.8,0,0,1,2.38-1h1.67a5,5,0,0,1,4,1.85,10.6,10.6,0,0,1,1.41,2.38,12.9,12.9,0,0,1,.79,2.65,16.69,16.69,0,0,1,.18,2.11A32.45,32.45,0,0,1,170.88,592.76Z" transform="translate(-56.21 -509.22)"/><path class="cls-1" d="M221.41,566.48a25,25,0,0,0-5.65-.52,2.55,2.55,0,0,0-.79.17,8.93,8.93,0,0,0-2.2,1.32c-.27.27-.53.44-.62.71-1.24,2.2-2.38,4.32-3.53,6.52-.61,1.15-1.23,2.3-1.94,3.44-.17.44-.53.53-1,.53l-.16,0a.94.94,0,0,1-.81-.63,13.34,13.34,0,0,1-1.32-2.47c-.88-1.77-1.59-3.62-2.47-5.47a19.26,19.26,0,0,0-1.15-2.47,4.67,4.67,0,0,0-.61-.79,6.5,6.5,0,0,0-2.91-1.68c-1.06-.26-2.12-.35-3.18-.53l-.5,0a6.31,6.31,0,0,0-2.32.46,3.66,3.66,0,0,0-2.38,3,5.58,5.58,0,0,0,1.06,4.06,6.09,6.09,0,0,1,.88,1.23l1.32,2.65c1.06,1.94,2.12,3.79,3.09,5.82,1.32,2.47,2.73,5,4.23,7.4a6,6,0,0,1,.88,1.41,18.05,18.05,0,0,1,1.24,6.44c0,4.06-.18,8.2-.18,12.26,0,4.23.18,8.46.27,12.78a10,10,0,0,0,.26,2.3,3,3,0,0,0,1.76,2.11,12.78,12.78,0,0,0,4.46.81h.66a4.16,4.16,0,0,0,3.44-1.86,6.54,6.54,0,0,0,1.06-3.17v-7.58c0-1.68-.09-3.27,0-4.94,0-3.09.17-6.17.17-9.35a22.88,22.88,0,0,1,1.5-7.67c.62-1.76,1.41-3.44,2.12-5.11,1-2.12,2.11-4.24,2.91-6.53.61-1.76,1.41-3.53,2.2-5.29s1.41-3.26,1.94-4.94a4.31,4.31,0,0,0,.09-2.38A3,3,0,0,0,221.41,566.48Z" transform="translate(-56.21 -509.22)"/><path class="cls-1" d="M279.37,602.81a11.06,11.06,0,0,0-1.94-4.58c-.53-.62-1.06-1.33-1.68-1.94a1.57,1.57,0,0,1-.53-1.06,4,4,0,0,1,.89-2.65,10.09,10.09,0,0,0,1.14-1.58,12.89,12.89,0,0,0,1.41-4.06,37.94,37.94,0,0,0,.62-6.7c0-.53-.09-1.5-.18-2.47a16.12,16.12,0,0,0-1-4.23,15.16,15.16,0,0,0-2.82-4.59A7.39,7.39,0,0,0,273.2,567c-1.15-.61-2.21-1.14-3.35-1.67a6.65,6.65,0,0,0-2.65-.88c-1.67-.27-3.35-.53-5-.71a24.52,24.52,0,0,0-3.52-.35c-1.94-.09-3.88-.09-5.82-.09H249.3a8.26,8.26,0,0,0-3.26.62,2.85,2.85,0,0,0-1.5,1.41c-.27.53-.53,1.06-.88,1.67a4,4,0,0,0-.44,1.5c-.27,1.77-.18,3.53-.44,5.29a15.35,15.35,0,0,0-.09,4.06c.09,4.32.17,8.73.35,13,0,1.85.09,3.61.09,5.47.09,7.49,0,15.07.26,22.57.09.79.09,1.59.18,2.29a9.62,9.62,0,0,0,1.32,3.88,1.79,1.79,0,0,0,.71.71,7.39,7.39,0,0,0,2.47.79c.26,0,.61.18,1,.18a10.29,10.29,0,0,0,1.5.26c1.49,0,3,0,4.4-.09l2.38,0a21.24,21.24,0,0,1,2.39.11,24.15,24.15,0,0,0,2.55.09c.59,0,1.18,0,1.77,0a8.77,8.77,0,0,0,.88,0c1.06,0,2.2-.09,3.26-.09a24.77,24.77,0,0,0,5.11-.7,5.29,5.29,0,0,0,3.53-2.74,15.12,15.12,0,0,0,1.5-3.79c.09-.44.27-.79.35-1.15a10.14,10.14,0,0,0,.44-1.41,27,27,0,0,0,.71-5.9c.09-1.41,0-2.91,0-4.32A17.41,17.41,0,0,0,279.37,602.81Zm-22.13-17.28a27.64,27.64,0,0,1,.26-6.61c.08-.73.46-1.16,1.13-1.16h.19a10.91,10.91,0,0,1,5.56,1.15,2.59,2.59,0,0,1,1.15,1.23,8.2,8.2,0,0,1,.79,2.82,14.74,14.74,0,0,1,.09,1.94,4.31,4.31,0,0,1-.71,2.56c-.35.71-1,.79-1.67.88h-1.5c-1.15-.09-2.3-.17-3.44-.17a1.44,1.44,0,0,1-1.5-1.06A5.06,5.06,0,0,1,257.24,585.53Zm10.31,25.84a2.66,2.66,0,0,1-1.76,1.85,15.65,15.65,0,0,1-3.35.79,2.9,2.9,0,0,0-.88.09,2.62,2.62,0,0,1-.75.11,2.66,2.66,0,0,1-2-1.08,2.7,2.7,0,0,1-.53-1.24,14,14,0,0,1-.35-4.4c-.09-.89-.17-1.94-.26-3.09a12.74,12.74,0,0,1,.09-1.85,1.64,1.64,0,0,1,1.76-1.5,11.43,11.43,0,0,0,1.15.07,11.24,11.24,0,0,0,1.14-.07,9.76,9.76,0,0,1,3.88,1.06,3.58,3.58,0,0,1,1.5,1.76,13.37,13.37,0,0,1,.71,4.94A6.34,6.34,0,0,1,267.55,611.37Z" transform="translate(-56.21 -509.22)"/><path class="cls-1" d="M327.6,618.24c-.53-1.94-1.15-3.88-1.68-5.9-.88-3.44-1.67-7-2.55-10.41-.71-2.56-1.5-5.11-2.21-7.67-.35-1.41-.7-2.82-1.06-4.23a10.62,10.62,0,0,1-.44-1.5c-.52-1.77-1-3.53-1.49-5.29a8.74,8.74,0,0,1-.71-3.44.63.63,0,0,0-.09-.35c-.26-1.41-.62-2.83-1-4.24a25.63,25.63,0,0,1-.79-3.26,17.1,17.1,0,0,0-1.15-4.14,3,3,0,0,0-.44-.71,11.54,11.54,0,0,0-2.2-1.85,3.35,3.35,0,0,0-2-.72h-2l-1.45,0a4.77,4.77,0,0,0-2.08.38H304a5.06,5.06,0,0,0-3.7,2.82c-.71,1.67-1.15,3.44-1.68,5.11-.35,1.41-.53,2.82-.88,4.15-.62,2.38-1.41,4.67-2.12,7-.35,1.15-.62,2.21-1,3.35-.44,1.59-.88,3.18-1.32,4.85s-.79,3.18-1.15,4.85c-.7,2.65-1.5,5.29-2.2,8-.53,2.2-1,4.4-1.5,6.61-.35,1.5-.62,3-1.06,4.5s-.88,3-1.32,4.4a7.67,7.67,0,0,0-.35,3.44,1.55,1.55,0,0,0,.79,1.5,10,10,0,0,0,2.12.88,23.9,23.9,0,0,0,4.79.63H294a4.91,4.91,0,0,0,2.56-.62,7.17,7.17,0,0,0,1.06-.7,5.47,5.47,0,0,0,2.38-3.18,10.64,10.64,0,0,1,1-1.94,1.83,1.83,0,0,1,1.56-.81l.29,0c.53,0,1.06.09,1.5.09,2.47.09,4.94.09,7.41.18.26,0,.53.08.79.08a2.56,2.56,0,0,1,1.59,2,5,5,0,0,0,1.23,2.65,15,15,0,0,0,2,1.94.44.44,0,0,1,.27.09,12.7,12.7,0,0,0,3.51.48,14.67,14.67,0,0,0,4-.57,4,4,0,0,0,3-2.3,7,7,0,0,0,.44-2.64C328.31,620.62,328,619.48,327.6,618.24Zm-19-14.1h-.26c-.88-.09-1.77-.18-2.74-.36s-1.05-.53-.79-1.41c.18-.62.44-1.23.62-1.76a3.88,3.88,0,0,0,.26-1c.27-2,1.06-4,1.41-5.91a7.94,7.94,0,0,1,.27-.79c.13-.18.26-.27.38-.27s.23.09.32.27.09.35.18.53c.26,1.32.44,2.55.7,3.88.27,1,.62,2.11,1,3.17a9.5,9.5,0,0,1,.45,1.5A1.62,1.62,0,0,1,308.64,604.14Z" transform="translate(-56.21 -509.22)"/><path class="cls-1" d="M377.68,585.27c-.26-1.5-.44-2.91-.61-4.41-.09-.44-.27-1-.36-1.41s-.26-.89-.44-1.33c-.44-1.14-.79-2.38-1.32-3.44a20,20,0,0,0-1.68-3,11.89,11.89,0,0,0-3.43-3.53,28.18,28.18,0,0,0-5.74-2.73c-.17-.09-.44-.09-.61-.18-.62-.09-1.24-.26-1.85-.35-1.06-.18-2.12-.44-3.18-.53-2.12-.18-4.32-.27-6.52-.35-1-.06-1.94-.11-2.91-.11a18.94,18.94,0,0,0-2.12.11c-1.68.17-3.44.35-5.11.35h-.14a4.73,4.73,0,0,0-4.19,3.45,32.41,32.41,0,0,0-.79,4.93c-.09,1.5-.35,3-.35,4.5-.09,5.47-.09,10.85-.09,16.23.09,5.2.09,10.31.18,15.43,0,.53.08,1.06.08,1.58.18,2.56.36,5.21.53,7.76.09,1.41.09,2.74.18,4.15.09.35.09.7.18,1.06a5.36,5.36,0,0,0,2.64,3.08,1.06,1.06,0,0,0,.71.18,21,21,0,0,0,2.38.09c2.29,0,4.58,0,6.88-.09,1,0,1.85-.09,2.73-.09,1.5-.09,3-.09,4.5-.26a19.14,19.14,0,0,0,3.26-.36,13.42,13.42,0,0,0,2.73-1,21.16,21.16,0,0,0,6-3.7,11.77,11.77,0,0,0,1.85-1.76,28.85,28.85,0,0,0,3.79-6.35,16.75,16.75,0,0,0,1.15-3.53,4.55,4.55,0,0,1,.26-1.41,42.21,42.21,0,0,0,1.41-6.7c.18-1.94.27-4,.36-5.91.08-3.35-.27-6.61-.36-10ZM363.75,602.9a15,15,0,0,1-2.73,5.73,6.1,6.1,0,0,1-1.68,1.41,37.85,37.85,0,0,1-5.55,2.3,6.89,6.89,0,0,1-1.24.08,2,2,0,0,1-1.85-1.94v-4.32c-.09-3-.18-5.9-.26-8.9,0-2.21-.09-4.32-.09-6.53V587c.09-.79.09-1.68.17-2.56s.27-1.76.45-2.64c.08-.44.08-.88.17-1.33.18-.7.44-1.41.62-2a1.17,1.17,0,0,1,1.14-.9h.18a18.51,18.51,0,0,1,2.21.27c1,.26,2.11.7,3.17,1.06a.73.73,0,0,1,.44.26,15.63,15.63,0,0,1,4.76,6.17,21.85,21.85,0,0,1,1.24,6.71A40.85,40.85,0,0,1,363.75,602.9Z" transform="translate(-56.21 -509.22)"/><path class="cls-1" d="M438.27,585.27c-.26-1.5-.44-2.91-.62-4.41-.08-.44-.26-1-.35-1.41s-.26-.89-.44-1.33c-.44-1.14-.79-2.38-1.32-3.44a20,20,0,0,0-1.68-3,11.92,11.92,0,0,0-3.44-3.53,27.85,27.85,0,0,0-5.73-2.73c-.17-.09-.44-.09-.62-.18-.61-.09-1.23-.26-1.85-.35-1.06-.18-2.11-.44-3.17-.53-2.12-.18-4.32-.27-6.53-.35-1-.06-1.93-.11-2.9-.11a18.7,18.7,0,0,0-2.12.11c-1.68.17-3.44.35-5.12.35h-.13a4.73,4.73,0,0,0-4.19,3.45,32.41,32.41,0,0,0-.79,4.93c-.09,1.5-.35,3-.35,4.5-.09,5.47-.09,10.85-.09,16.23.09,5.2.09,10.31.17,15.43,0,.53.09,1.06.09,1.58.18,2.56.36,5.21.53,7.76.09,1.41.09,2.74.18,4.15.09.35.09.7.17,1.06a5.35,5.35,0,0,0,2.65,3.08,1,1,0,0,0,.7.18,21.22,21.22,0,0,0,2.39.09c2.29,0,4.58,0,6.87-.09,1,0,1.85-.09,2.74-.09,1.5-.09,3-.09,4.49-.26a19.14,19.14,0,0,0,3.27-.36,13.42,13.42,0,0,0,2.73-1,21.16,21.16,0,0,0,6-3.7,12.22,12.22,0,0,0,1.85-1.76,28.85,28.85,0,0,0,3.79-6.35,16.75,16.75,0,0,0,1.15-3.53,4.28,4.28,0,0,1,.26-1.41,43.35,43.35,0,0,0,1.41-6.7c.18-1.94.26-4,.35-5.91.09-3.35-.26-6.61-.35-10ZM424.34,602.9a14.85,14.85,0,0,1-2.74,5.73,5.92,5.92,0,0,1-1.67,1.41,38,38,0,0,1-5.56,2.3,6.84,6.84,0,0,1-1.23.08,2,2,0,0,1-1.85-1.94v-4.32c-.09-3-.18-5.9-.27-8.9,0-2.21-.08-4.32-.08-6.53V587c.08-.79.08-1.68.17-2.56s.27-1.76.44-2.64c.09-.44.09-.88.18-1.33.18-.7.44-1.41.62-2a1.16,1.16,0,0,1,1.13-.9h.19a18.35,18.35,0,0,1,2.2.27c1.06.26,2.12.7,3.18,1.06a.76.76,0,0,1,.44.26,15.63,15.63,0,0,1,4.76,6.17,22.16,22.16,0,0,1,1.24,6.71A41.26,41.26,0,0,1,424.34,602.9Z" transform="translate(-56.21 -509.22)"/><path class="cls-1" d="M483,618.24c-.53-1.94-1.15-3.88-1.68-5.9-.88-3.44-1.68-7-2.56-10.41-.7-2.56-1.5-5.11-2.2-7.67-.35-1.41-.71-2.82-1.06-4.23a9.45,9.45,0,0,1-.44-1.5c-.53-1.77-1-3.53-1.5-5.29a9.11,9.11,0,0,1-.71-3.44.7.7,0,0,0-.08-.35c-.27-1.41-.62-2.83-1-4.24A24.13,24.13,0,0,1,471,572a16.64,16.64,0,0,0-1.14-4.14,3.43,3.43,0,0,0-.44-.71,11.31,11.31,0,0,0-2.21-1.85,3.33,3.33,0,0,0-2-.72h-2l-1.44,0a4.71,4.71,0,0,0-2.08.38h-.36a5.1,5.1,0,0,0-3.7,2.82c-.71,1.67-1.15,3.44-1.68,5.11-.35,1.41-.52,2.82-.88,4.15-.61,2.38-1.41,4.67-2.11,7-.36,1.15-.62,2.21-1,3.35-.44,1.59-.88,3.18-1.33,4.85s-.79,3.18-1.14,4.85c-.71,2.65-1.5,5.29-2.21,8-.53,2.2-1,4.4-1.5,6.61-.35,1.5-.61,3-1.05,4.5s-.89,3-1.33,4.4a7.67,7.67,0,0,0-.35,3.44,1.56,1.56,0,0,0,.79,1.5,10.26,10.26,0,0,0,2.12.88,24.09,24.09,0,0,0,4.8.63h.58a4.93,4.93,0,0,0,2.56-.62,7.73,7.73,0,0,0,1.06-.7,5.56,5.56,0,0,0,2.38-3.18,9.5,9.5,0,0,1,1-1.94,1.81,1.81,0,0,1,1.56-.81l.29,0c.53,0,1.06.09,1.5.09,2.47.09,4.93.09,7.4.18.27,0,.53.08.8.08a2.53,2.53,0,0,1,1.58,2,4.94,4.94,0,0,0,1.24,2.65,14.45,14.45,0,0,0,2,1.94.42.42,0,0,1,.26.09,12.8,12.8,0,0,0,3.51.48,14.74,14.74,0,0,0,4-.57,4,4,0,0,0,3-2.3,6.79,6.79,0,0,0,.44-2.64C483.68,620.62,483.33,619.48,483,618.24Zm-19-14.1h-.27c-.88-.09-1.76-.18-2.73-.36s-1.06-.53-.79-1.41c.17-.62.44-1.23.61-1.76a3.91,3.91,0,0,0,.27-1c.26-2,1.06-4,1.41-5.91a8.15,8.15,0,0,1,.26-.79.54.54,0,0,1,.39-.27c.12,0,.23.09.32.27s.09.35.17.53c.27,1.32.44,2.55.71,3.88.26,1,.62,2.11,1,3.17a9.45,9.45,0,0,1,.44,1.5A1.61,1.61,0,0,1,464,604.14Z" transform="translate(-56.21 -509.22)"/><path class="cls-1" d="M516.22,566.48a25,25,0,0,0-5.65-.52,2.49,2.49,0,0,0-.79.17,8.93,8.93,0,0,0-2.2,1.32c-.27.27-.53.44-.62.71-1.24,2.2-2.38,4.32-3.53,6.52-.62,1.15-1.23,2.3-1.94,3.44-.17.44-.53.53-1,.53l-.16,0a.94.94,0,0,1-.81-.63,13.34,13.34,0,0,1-1.32-2.47c-.88-1.77-1.59-3.62-2.47-5.47a20.71,20.71,0,0,0-1.15-2.47,4.67,4.67,0,0,0-.61-.79,6.55,6.55,0,0,0-2.91-1.68c-1.06-.26-2.12-.35-3.18-.53l-.5,0a6.31,6.31,0,0,0-2.32.46,3.66,3.66,0,0,0-2.38,3,5.58,5.58,0,0,0,1.06,4.06,6.09,6.09,0,0,1,.88,1.23L486,576c1.06,1.94,2.12,3.79,3.09,5.82,1.32,2.47,2.73,5,4.23,7.4a6,6,0,0,1,.88,1.41,18.05,18.05,0,0,1,1.24,6.44c0,4.06-.18,8.2-.18,12.26,0,4.23.18,8.46.27,12.78a10,10,0,0,0,.26,2.3,3,3,0,0,0,1.76,2.11,12.78,12.78,0,0,0,4.46.81h.66a4.16,4.16,0,0,0,3.44-1.86,6.43,6.43,0,0,0,1.05-3.17v-7.58c0-1.68-.08-3.27,0-4.94,0-3.09.18-6.17.18-9.35a22.88,22.88,0,0,1,1.5-7.67c.62-1.76,1.41-3.44,2.12-5.11,1-2.12,2.11-4.24,2.91-6.53.61-1.76,1.41-3.53,2.2-5.29s1.41-3.26,1.94-4.94a4.51,4.51,0,0,0,.09-2.38A3.06,3.06,0,0,0,516.22,566.48Z" transform="translate(-56.21 -509.22)"/><path class="cls-1" d="M557.13,604.22a11.3,11.3,0,0,0-3.88-7.32,9.93,9.93,0,0,0-1.5-1.23,37.3,37.3,0,0,0-5.73-4.06c-1.94-1-4-1.94-5.91-2.73-.88-.35-1.67-.79-2.47-1.15-1.32-.7-1.76-1.94-2.38-3.17a1.1,1.1,0,0,1-.09-.53,5.34,5.34,0,0,1,1-3.44,3.38,3.38,0,0,1,2.3-1.5,12.84,12.84,0,0,1,1.77-.11l1.84,0a7.49,7.49,0,0,1,2.74.7,18.08,18.08,0,0,0,2.11.79,7.36,7.36,0,0,0,2.18.41,3.49,3.49,0,0,0,2-.58c.08,0,.17-.09.26-.09a6.15,6.15,0,0,0,2.47-2.29,10.81,10.81,0,0,0,.88-1.77,1.39,1.39,0,0,0,.27-.79,4.21,4.21,0,0,0-.36-3.26c-.08-.27-.17-.44-.26-.71-.09-.09-.18-.26-.26-.35a11.18,11.18,0,0,0-1.59-1.41,29.18,29.18,0,0,0-4-2.65,15.64,15.64,0,0,0-3.79-1.41,22.45,22.45,0,0,0-7.67,0c-1,.18-1.94.44-2.91.71a5.54,5.54,0,0,0-1.68.7,15.78,15.78,0,0,0-4.05,3.27,23.15,23.15,0,0,0-2.83,3.08c-.53,1.06-1.23,1.94-1.76,3a24,24,0,0,0-1.59,5v.26c0,1.5,0,3,.09,4.5a15.55,15.55,0,0,0,1.77,6.26,14.38,14.38,0,0,0,3.08,3.79,24.53,24.53,0,0,0,3.09,2.12c1.85,1.14,3.61,2.29,5.46,3.35a41.74,41.74,0,0,0,5.82,3.08,6.39,6.39,0,0,1,2.12,1.59,3.93,3.93,0,0,1,1.06,2.56,7.22,7.22,0,0,1-1.5,4.85c-.18.26-.27.44-.44.53a5.24,5.24,0,0,1-2.71.88,3.88,3.88,0,0,1-.82-.09c-.44-.09-1-.09-1.41-.18-1-.26-1.94-.44-2.91-.7a1.87,1.87,0,0,1-.44-.27,33.75,33.75,0,0,1-3.62-2.64,3.25,3.25,0,0,0-1.94-.88,15.86,15.86,0,0,0-2-.09,4.3,4.3,0,0,0-.62.26A10.74,10.74,0,0,0,523.8,613a4,4,0,0,0-.88,3v.44a7.76,7.76,0,0,0,1.41,5.38c0,.09.09.18.09.27a6.72,6.72,0,0,0,2.73,2.91c.18.08.35.26.53.35a3.91,3.91,0,0,0,.79.44c1.06.44,2.12.7,3.18,1.23a24,24,0,0,0,4.23,1.59,9.72,9.72,0,0,0,3.33.57,13.1,13.1,0,0,0,2.75-.31,24.66,24.66,0,0,0,3.44-1.05,22.36,22.36,0,0,0,5.21-3.18,15.7,15.7,0,0,0,3.35-3.88,21.61,21.61,0,0,0,1.85-3,17,17,0,0,0,1.76-7.75C557.48,608,557.31,606.08,557.13,604.22Z" transform="translate(-56.21 -509.22)"/></svg>